<svg id="Lockups" xmlns="http://www.w3.org/2000/svg" viewBox="0 0 689.74 255.28"><defs><style>.cls-1{fill:#007f98;}.cls-2{fill:#f5f5f5;}.cls-3{fill:#252525;}</style></defs><rect class="cls-1" x="20" y="139" width="655" height="45" rx="9.63"/><rect class="cls-1" x="20" y="195" width="520" height="45" rx="8.58"/><path class="cls-2" d="M39,172.42H32.74V149.93h6.93c6.77,0,11.08,3.81,11.08,11C50.75,168.54,46.41,172.42,39,172.42Zm.25-20.07H35.57V170h3.06c6.08,0,9.13-3,9.13-8.94S44.68,152.35,39.26,152.35Z"/><path class="cls-2" d="M55.5,172.42V149.93H68.07v2.49H58.34v7h8.44v2.46H58.34v8H68.76l-.94,2.49Z"/><path class="cls-2" d="M87.11,156.54c0,3.72-2.23,7.12-9,7.12H75.55v8.76H72.72V149.93h6C84.56,149.93,87.11,152.35,87.11,156.54Zm-11.56-4.19v8.88h2.27c4.28,0,6.36-1.26,6.36-4.56,0-2.9-1.79-4.32-5.76-4.32Z"/><path class="cls-2" d="M101.48,165.46H92.56l-2.67,7H87l8.79-22.59h2.55l8.75,22.59h-2.93Zm-3.37-9.33c-.19-.5-.85-2.58-1.07-3.37-.32,1.29-.73,2.65-1,3.37l-2.55,6.81h7.12Z"/><path class="cls-2" d="M124.91,156.32c0,3.59-2.23,5.23-4.5,6l6.17,10.08h-3.3l-5.45-9.3h-4.47v9.3h-2.84V149.93h6.21C122.3,149.93,124.91,152,124.91,156.32Zm-11.55-3.94v8.35h3.37c3.65,0,5.26-1.45,5.26-4.28s-1.74-4.07-5.42-4.07Z"/><path class="cls-2" d="M134.65,172.42v-20h-7l.94-2.49h15.91v2.49h-7v20Z"/><path class="cls-2" d="M157.39,165.46h-8.91l-2.68,7h-2.87l8.79-22.59h2.55L163,172.42H160.1ZM154,156.13c-.19-.5-.85-2.58-1.07-3.37-.32,1.29-.73,2.65-1,3.37l-2.55,6.81h7.12Z"/><path class="cls-2" d="M169,152.7h-.12c.12,1.29.22,3.68.22,6.08v13.64h-2.62V149.93h4.19l6.93,18.42h.13l7-18.42h4.16v22.49h-2.8V158.59c0-2.17.12-4.51.22-5.86h-.13l-7.5,19.69h-2.33Z"/><path class="cls-2" d="M194.79,172.42V149.93h12.57v2.49h-9.73v7h8.44v2.46h-8.44v8h10.42l-.94,2.49Z"/><path class="cls-2" d="M226.53,172.42l-12-18.68h-.13c.09,1.48.25,3.81.25,6.11v12.57H212V149.93h3.27l12,18.61h.13c-.06-1-.22-3.87-.22-5.92V149.93h2.64v22.49Z"/><path class="cls-2" d="M240.4,172.42v-20h-7l.94-2.49h15.91v2.49h-7v20Z"/><path class="cls-2" d="M271,164.48c0,4.66-2.8,8.25-8.75,8.25-5.61,0-8.57-3.31-8.57-8.31V149.93h2.84v14.58c0,3.65,1.95,5.76,5.89,5.76s5.79-2.39,5.79-5.79V149.93H271Z"/><path class="cls-2" d="M276.72,149.93h2.83v20h10.37l-.95,2.52H276.72Z"/><path class="cls-2" d="M301.73,149.93h2.84v20h10.36l-.95,2.52H301.73Z"/><path class="cls-2" d="M317.2,172.42l.94-2.52h1.7V152.42H317.2v-2.49h8.12l-.94,2.49h-1.7V169.9h2.64v2.52Z"/><path class="cls-2" d="M335.89,149.93c5.6,0,8.53,1.48,8.53,5.57a4.77,4.77,0,0,1-4.28,5v.16c2.83.47,5,1.89,5,5.38,0,4.1-3,6.4-7.81,6.4h-7.91V149.93Zm.57,9.57c3.84,0,5-1.26,5-3.68s-1.67-3.47-5.48-3.47H332.3v7.15ZM332.3,170h4.53c4,0,5.33-1.7,5.33-4.22,0-2.36-1.39-3.94-5.55-3.94H332.3Z"/><path class="cls-2" d="M349.88,172.42V149.93h12.57v2.49h-9.73v7h8.44v2.46h-8.44v8h10.42l-.94,2.49Z"/><path class="cls-2" d="M381.49,156.32c0,3.59-2.24,5.23-4.5,6l6.17,10.08h-3.31l-5.45-9.3h-4.47v9.3H367.1V149.93h6.2C378.88,149.93,381.49,152,381.49,156.32Zm-11.56-3.94v8.35h3.37c3.65,0,5.26-1.45,5.26-4.28s-1.73-4.07-5.42-4.07Z"/><path class="cls-2" d="M391.22,172.42v-20h-7l.95-2.49h15.9v2.49h-7v20Z"/><path class="cls-2" d="M414,165.46h-8.91l-2.68,7h-2.86l8.78-22.59h2.55l8.76,22.59h-2.93Zm-3.37-9.33c-.19-.5-.85-2.58-1.07-3.37-.31,1.29-.72,2.65-1,3.37L406,162.94h7.12Z"/><path class="cls-2" d="M425.06,172.42v-20h-7l.95-2.49h15.9v2.49h-7v20Z"/><path class="cls-2" d="M438.43,172.42V149.93H451v2.49h-9.73v7h8.44v2.46h-8.44v8h10.42l-.94,2.49Z"/><path class="cls-2" d="M468.27,165.46h-8.92l-2.67,7h-2.87l8.79-22.59h2.55l8.75,22.59H471Zm-3.37-9.33c-.19-.5-.85-2.58-1.07-3.37-.32,1.29-.73,2.65-1,3.37l-2.55,6.81h7.12Z"/><path class="cls-2" d="M499.89,156.32c0,3.59-2.23,5.23-4.5,6l6.17,10.08h-3.31l-5.44-9.3h-4.48v9.3H485.5V149.93h6.2C497.28,149.93,499.89,152,499.89,156.32Zm-11.56-3.94v8.35h3.37c3.66,0,5.26-1.45,5.26-4.28s-1.73-4.07-5.41-4.07Z"/><path class="cls-2" d="M505.18,172.42V149.93h12.57v2.49H508v7h8.44v2.46H508v8h10.42l-.94,2.49Z"/><path class="cls-2" d="M522.4,149.93h2.83v20h10.36l-.94,2.52H522.4Z"/><path class="cls-2" d="M537.87,172.42l.94-2.52h1.7V152.42h-2.64v-2.49H546l-1,2.49h-1.7V169.9H546v2.52Z"/><path class="cls-2" d="M567.34,160.54v11a24,24,0,0,1-7.9,1.17c-7,0-10.77-4.44-10.77-11.56s4.28-11.56,11.65-11.56a17.07,17.07,0,0,1,6.71,1.33l-.95,2.48a15.57,15.57,0,0,0-5.92-1.32c-5.38,0-8.53,3.47-8.53,9.07,0,5.39,2.42,9.1,8.47,9.1a17.08,17.08,0,0,0,4.41-.53v-6.68h-4.94l.94-2.52Z"/><path class="cls-2" d="M571,172.42l.94-2.52h1.7V152.42H571v-2.49h8.12l-.94,2.49h-1.7V169.9h2.64v2.52Z"/><path class="cls-2" d="M592.15,172.73c-7,0-10.4-4.66-10.4-11.62s3.37-11.53,10.43-11.53c6.74,0,10.33,4.57,10.33,11.56S598.92,172.73,592.15,172.73Zm0-2.46c5.1,0,7.36-3.46,7.36-9.13s-2.26-9.07-7.33-9.07-7.44,3.4-7.44,9.07S587.07,170.27,592.15,170.27Z"/><path class="cls-2" d="M618.3,165.46h-8.92l-2.67,7h-2.87l8.79-22.59h2.55l8.75,22.59H621Zm-3.37-9.33c-.19-.5-.85-2.58-1.07-3.37-.32,1.29-.73,2.65-1,3.37l-2.55,6.81h7.12Z"/><path class="cls-2" d="M632.9,172.73a15,15,0,0,1-6.17-1.07l.88-2.33a14.57,14.57,0,0,0,5.42.94c3.33,0,5.07-1.38,5.07-3.62s-1.23-3.15-5.29-4.63c-3.85-1.38-5.8-3.18-5.8-6.68s2.93-5.73,7.18-5.73a15.2,15.2,0,0,1,6.21,1.26l-.92,2.43a13.9,13.9,0,0,0-5.35-1.2c-2.8,0-4.25,1.32-4.25,3.28,0,2.26,1.26,3.18,4.91,4.53,4,1.48,6.14,3,6.14,6.49C640.93,170.4,637.81,172.73,632.9,172.73Z"/><path class="cls-2" d="M657.34,165.46h-8.91l-2.68,7h-2.87l8.79-22.59h2.55L663,172.42h-2.93ZM653,147.72c-3.12,0-4.66-1.63-4.82-4.22h1.7c.19,1.74,1.26,2,3.19,2,1.63,0,3-.35,3.18-2h1.73C657.72,146,656,147.72,653,147.72Zm1,8.41c-.19-.5-.85-2.58-1.07-3.37-.32,1.29-.73,2.65-1,3.37l-2.55,6.81h7.12Z"/><path class="cls-2" d="M39.47,217.76c0,5.57,2.58,9.07,7.74,9.07a15,15,0,0,0,5.8-1.14l.82,2.18a14.52,14.52,0,0,1-7,1.44c-6.89,0-10.33-4.5-10.33-11.59,0-6.8,3.85-11.52,10.81-11.52a13.31,13.31,0,0,1,6,1.23l-.94,2.48a12.36,12.36,0,0,0-5.11-1.22C42.43,208.69,39.47,212.12,39.47,217.76Z"/><path class="cls-2" d="M66,229.31c-7,0-10.4-4.66-10.4-11.62S59,206.17,66,206.17c6.74,0,10.33,4.56,10.33,11.55S72.76,229.31,66,229.31Zm0-2.45c5.1,0,7.37-3.47,7.37-9.14s-2.27-9.07-7.34-9.07-7.43,3.41-7.43,9.07S60.92,226.86,66,226.86Z"/><path class="cls-2" d="M95.69,229l-12-18.68h-.12c.09,1.48.25,3.81.25,6.11V229H81.17V206.51h3.28l12,18.62h.13c-.07-1-.23-3.88-.23-5.92v-12.7H99V229Z"/><path class="cls-2" d="M104.89,229V206.51h12.56V209h-9.73v8h8.44v2.49h-8.44V229Z"/><path class="cls-2" d="M121.18,229V206.51h12.57V209H124v7h8.44v2.46H124v8h10.43l-.95,2.49Z"/><path class="cls-2" d="M152.79,212.91c0,3.59-2.24,5.22-4.51,6L154.46,229h-3.31l-5.45-9.29h-4.47V229h-2.84V206.51h6.21C150.17,206.51,152.79,208.62,152.79,212.91ZM141.23,209v8.35h3.37c3.65,0,5.26-1.45,5.26-4.29s-1.74-4.06-5.42-4.06Z"/><path class="cls-2" d="M157.21,229l.94-2.52h1.7V209h-2.64v-2.49h8.12l-.94,2.49h-1.7v17.48h2.64V229Z"/><path class="cls-2" d="M184,229l-12-18.68h-.12c.09,1.48.25,3.81.25,6.11V229h-2.62V206.51h3.28l12,18.62h.12c-.06-1-.22-3.88-.22-5.92v-12.7h2.65V229Z"/><path class="cls-2" d="M197.87,229V209h-7l.95-2.49h15.9V209h-7v20Zm3.43,2.21a14.9,14.9,0,0,1-2.52,4.75h-1.51v-.38a20.33,20.33,0,0,0,1.29-4.66h2.74Z"/><path class="cls-2" d="M220.61,222h-8.92L209,229h-2.87l8.79-22.58h2.55L226.24,229h-2.93Zm-3.37-9.32c-.19-.51-.86-2.59-1.08-3.37-.31,1.29-.72,2.64-1,3.37l-2.55,6.8h7.11Z"/><path class="cls-2" d="M242.12,229V209h-7l.94-2.49H252V209h-7v20Z"/><path class="cls-2" d="M269.88,212.91c0,3.59-2.23,5.22-4.5,6L271.55,229h-3.31l-5.44-9.29h-4.48V229h-2.83V206.51h6.2C267.27,206.51,269.88,208.62,269.88,212.91ZM258.32,209v8.35h3.37c3.66,0,5.26-1.45,5.26-4.29s-1.73-4.06-5.41-4.06Z"/><path class="cls-2" d="M288.17,222h-8.92l-2.67,7h-2.87l8.79-22.58h2.55L293.8,229h-2.93Zm-3.37-9.32c-.19-.51-.85-2.59-1.08-3.37-.31,1.29-.72,2.64-1,3.37l-2.55,6.8h7.11Z"/><path class="cls-2" d="M311.73,229l-12-18.68h-.13c.1,1.48.25,3.81.25,6.11V229h-2.61V206.51h3.28l12,18.62h.12c-.06-1-.22-3.88-.22-5.92v-12.7H315V229Z"/><path class="cls-2" d="M325.61,229.31a14.83,14.83,0,0,1-6.17-1.07l.88-2.33a14.48,14.48,0,0,0,5.42,1c3.33,0,5.07-1.39,5.07-3.62s-1.23-3.15-5.29-4.63c-3.85-1.39-5.8-3.18-5.8-6.68s2.93-5.73,7.18-5.73a15.07,15.07,0,0,1,6.21,1.26l-.92,2.42a13.9,13.9,0,0,0-5.35-1.19c-2.8,0-4.25,1.32-4.25,3.27,0,2.27,1.26,3.18,4.91,4.54,4,1.48,6.14,3,6.14,6.48C333.64,227,330.52,229.31,325.61,229.31Z"/><path class="cls-2" d="M336.74,229l.94-2.52h1.71V209h-2.65v-2.49h8.13l-.95,2.49h-1.7v17.48h2.65V229Z"/><path class="cls-2" d="M349,206.51h2.84v20H362.2l-.94,2.52H349Z"/><path class="cls-2" d="M371.49,229h-2.83l-8-22.49h3l5.07,14.43a37.44,37.44,0,0,1,1.41,4.91,36.09,36.09,0,0,1,1.42-5l5-14.37h3Z"/><path class="cls-2" d="M392.69,222h-8.91l-2.68,7h-2.86L387,206.42h2.56L398.33,229H395.4Zm-3.37-9.32c-.19-.51-.85-2.59-1.07-3.37-.31,1.29-.72,2.64-1,3.37l-2.55,6.8h7.11Z"/><path class="cls-2" d="M416.26,229l-12-18.68h-.13c.1,1.48.25,3.81.25,6.11V229h-2.61V206.51H405l12,18.62h.13c-.06-1-.22-3.88-.22-5.92v-12.7h2.64V229Z"/><path class="cls-2" d="M423.72,229l.95-2.52h1.7V209h-2.65v-2.49h8.13l-1,2.49h-1.7v17.48h2.65V229Z"/><path class="cls-2" d="M448.83,222h-8.92l-2.67,7h-2.87l8.79-22.58h2.55L454.46,229h-2.93Zm-3.37-9.32c-.19-.51-.86-2.59-1.08-3.37-.31,1.29-.72,2.64-1,3.37l-2.55,6.8H448Z"/><path class="cls-2" d="M471.1,229.31a14.91,14.91,0,0,1-6.18-1.07l.88-2.33a14.57,14.57,0,0,0,5.42,1c3.34,0,5.07-1.39,5.07-3.62s-1.23-3.15-5.29-4.63c-3.84-1.39-5.79-3.18-5.79-6.68s2.93-5.73,7.18-5.73a15,15,0,0,1,6.2,1.26l-.91,2.42a14,14,0,0,0-5.36-1.19c-2.8,0-4.25,1.32-4.25,3.27,0,2.27,1.26,3.18,4.92,4.54,4,1.48,6.14,3,6.14,6.48C479.13,227,476,229.31,471.1,229.31Z"/><path class="cls-2" d="M500.57,221.06c0,4.66-2.8,8.25-8.75,8.25-5.61,0-8.57-3.3-8.57-8.31V206.51h2.83v14.58c0,3.66,2,5.77,5.89,5.77s5.8-2.4,5.8-5.8V206.51h2.8Z"/><path class="cls-2" d="M512.57,229h-6.26V206.51h6.93c6.77,0,11.08,3.81,11.08,11C524.32,225.13,520,229,512.57,229Zm.26-20.06h-3.69v17.64h3.06c6.08,0,9.13-3,9.13-9S518.24,208.94,512.83,208.94Z"/><path class="cls-3" d="M46.28,20.05c10,0,15.17,2.63,15.17,9.9,0,4.7-2.69,8-7.61,8.84v.28c5,.84,8.95,3.36,8.95,9.57C62.79,55.92,57.47,60,48.91,60h-14V20.05Zm1,17c6.83,0,9-2.24,9-6.55s-3-6.15-9.73-6.15H39.9v12.7ZM39.9,55.75H48c7,0,9.46-3,9.46-7.5,0-4.2-2.46-7-9.85-7H39.9Z"/><path class="cls-3" d="M74.82,21.9a2.89,2.89,0,1,1-5.77,0c0-2.19,1.29-3.14,2.91-3.14S74.82,19.71,74.82,21.9ZM74.37,60H69.45V30h4.92Z"/><path class="cls-3" d="M90.31,60.56c-4.19,0-7.1-.67-9.4-1.9l1.46-3.81a22.52,22.52,0,0,0,8.06,1.74c5,0,7.1-1.74,7.1-4.42,0-2.24-1.51-3.59-7.38-5.82s-9.29-4-9.29-9c0-5.09,4.53-7.94,11.24-7.94a23.34,23.34,0,0,1,9.57,2l-1.51,4a21.4,21.4,0,0,0-8.39-2c-4,0-6.21,1.4-6.21,3.64,0,2.51,2,3.52,7.72,5.7s9,4.09,9,8.9C102.29,57.54,97.64,60.56,90.31,60.56Z"/><path class="cls-3" d="M132.22,43v3H111.69c.16,6.77,3.58,10.4,9.56,10.4a24.06,24.06,0,0,0,8.23-1.45l1.4,3.69a22.47,22.47,0,0,1-9.85,2c-8.56,0-14.44-5.32-14.44-15.33,0-9.85,5.32-15.78,13.27-15.78C127.52,29.45,132.22,34.82,132.22,43ZM111.8,42h15.27c0-5.09-2.29-8.56-7.27-8.56C115.1,33.48,112.3,36.67,111.8,42Z"/><path class="cls-3" d="M156.22,29.79l-.61,4.53a15.21,15.21,0,0,0-3.25-.39c-4.64,0-8.73,4-8.73,10.07V60h-4.92V30h4l.56,5.48h.22c1.9-3.3,5-6,9.18-6A17.37,17.37,0,0,1,156.22,29.79Z"/><path class="cls-3" d="M166.07,21.9a2.89,2.89,0,1,1-5.76,0c0-2.19,1.28-3.14,2.9-3.14S166.07,19.71,166.07,21.9ZM165.62,60H160.7V30h4.92Z"/><path class="cls-3" d="M172.33,45.17c0-11.08,6-15.72,14-15.72a19.62,19.62,0,0,1,7.94,1.62l-1.56,4.09a20.71,20.71,0,0,0-6.49-1.4c-6,0-8.84,3.86-8.84,11.36,0,7.21,2.91,11.19,8.56,11.19a15.71,15.71,0,0,0,6.66-1.46l1.51,3.92A16.33,16.33,0,0,1,186,60.56C178,60.56,172.33,55.8,172.33,45.17Z"/><path class="cls-3" d="M221.85,39.58V60h-3.58l-1-4.25h-.22c-2.63,3.3-5,4.81-10.08,4.81-5.42,0-9.45-2.8-9.45-8.9s4.59-9.29,14.38-9.57l5.09-.16V40.14c0-5-2.29-6.66-6.21-6.66a19.81,19.81,0,0,0-8.45,2.29l-1.51-3.69a22.45,22.45,0,0,1,10.24-2.58C218.38,29.5,221.85,32.58,221.85,39.58Zm-9.29,5.93c-7.49.28-9.9,2.4-9.9,6.21,0,3.36,2.24,4.87,5.48,4.87,5,0,8.84-2.75,8.84-8.56V45.34Z"/><path class="cls-3" d="M264.37,47.63H248.54L243.78,60h-5.09L254.3,19.88h4.53L274.39,60h-5.21Zm-6-16.56c-.33-.89-1.51-4.59-1.9-6-.56,2.3-1.28,4.71-1.73,6l-4.54,12.09h12.65Z"/><path class="cls-3" d="M277,45.06c0-10.3,4.92-15.61,12.36-15.61a10.83,10.83,0,0,1,9.29,4.42H299c-.11-.95-.34-3.3-.34-4.42V19.38l4.93-1.91V60h-4l-.72-4h-.23c-1.79,2.57-4.64,4.59-9.34,4.59C281.83,60.56,277,55.36,277,45.06Zm21.71.95v-.89c0-7.45-2-11.59-8.67-11.59-5.32,0-7.95,4.54-7.95,11.64s2.63,11.3,8,11.3C296.37,56.47,298.67,53,298.67,46Z"/><path class="cls-3" d="M307.73,30H313l6.38,17.68a63.67,63.67,0,0,1,2.4,8H322c.39-1.85,1.68-5.54,2.52-8L330.89,30h5.26L324.74,60h-5.65Z"/><path class="cls-3" d="M363.74,43v3H343.2c.17,6.77,3.58,10.4,9.57,10.4A24.06,24.06,0,0,0,361,54.91l1.39,3.69a22.42,22.42,0,0,1-9.84,2c-8.56,0-14.44-5.32-14.44-15.33,0-9.85,5.32-15.78,13.26-15.78C359,29.45,363.74,34.82,363.74,43Zm-20.43-1h15.28c-.06-5.09-2.29-8.56-7.27-8.56C346.62,33.48,343.82,36.67,343.31,42Z"/><path class="cls-3" d="M395.52,40.47V60h-4.87V40.81c0-4.81-2.13-7.22-6.72-7.22-6.65,0-8.78,3.86-8.78,10.85V60h-4.92V30h4l.72,4.08h.29c2-3.13,5.65-4.64,9.45-4.64C391.82,29.45,395.52,32.75,395.52,40.47Z"/><path class="cls-3" d="M415.54,55.8l1.35,3.53a11.36,11.36,0,0,1-5.49,1.23c-4.69,0-8.78-2-8.78-9.29V25l4.92-1.84V30h8.68v3.8h-8.68V51.16c0,3.64,2,5.37,4.7,5.37A8.9,8.9,0,0,0,415.54,55.8Z"/><path class="cls-3" d="M426.68,21.9a2.89,2.89,0,1,1-5.76,0c0-2.19,1.28-3.14,2.9-3.14S426.68,19.71,426.68,21.9ZM426.23,60h-4.92V30h4.92Z"/><path class="cls-3" d="M442.18,60.56c-4.2,0-7.11-.67-9.4-1.9l1.45-3.81a22.52,22.52,0,0,0,8.06,1.74c5,0,7.1-1.74,7.1-4.42,0-2.24-1.51-3.59-7.38-5.82s-9.29-4-9.29-9c0-5.09,4.53-7.94,11.25-7.94a23.32,23.32,0,0,1,9.56,2l-1.51,4a21.4,21.4,0,0,0-8.39-2c-4,0-6.21,1.4-6.21,3.64,0,2.51,2,3.52,7.72,5.7s9,4.09,9,8.9C454.15,57.54,449.51,60.56,442.18,60.56Z"/><path class="cls-3" d="M472,55.8l1.34,3.53a11.34,11.34,0,0,1-5.48,1.23c-4.7,0-8.79-2-8.79-9.29V25L464,23.13V30h8.67v3.8H464V51.16c0,3.64,1.95,5.37,4.7,5.37A8.94,8.94,0,0,0,472,55.8Z"/><path class="cls-3" d="M499.86,39.58V60h-3.58l-.95-4.25h-.23c-2.63,3.3-5,4.81-10.07,4.81-5.43,0-9.45-2.8-9.45-8.9s4.58-9.29,14.38-9.57l5.09-.16V40.14c0-5-2.3-6.66-6.21-6.66a19.77,19.77,0,0,0-8.45,2.29l-1.51-3.69a22.45,22.45,0,0,1,10.24-2.58C496.39,29.5,499.86,32.58,499.86,39.58Zm-11-13.49c-5.54,0-8.28-2.91-8.56-7.5h3c.33,3.08,2.24,3.53,5.65,3.53,2.91,0,5.26-.62,5.65-3.53h3.08C497.29,23.07,494.21,26.09,488.84,26.09Zm1.73,19.42c-7.5.28-9.9,2.4-9.9,6.21,0,3.36,2.24,4.87,5.48,4.87,5,0,8.84-2.75,8.84-8.56V45.34Z"/><path class="cls-3" d="M33.08,105.06c0-10.3,4.92-15.61,12.36-15.61a10.83,10.83,0,0,1,9.29,4.42h.34c-.11-1-.34-3.3-.34-4.42V79.38l4.93-1.91V120h-4L55,116h-.23c-1.79,2.57-4.64,4.59-9.34,4.59C38,120.56,33.08,115.36,33.08,105.06Zm21.71,1v-.89c0-7.45-2-11.59-8.67-11.59-5.32,0-7.95,4.54-7.95,11.64s2.63,11.3,8,11.3C52.49,116.47,54.79,113,54.79,106Z"/><path class="cls-3" d="M92.55,103v3H72c.17,6.77,3.58,10.4,9.57,10.4a24,24,0,0,0,8.22-1.45l1.4,3.69a22.47,22.47,0,0,1-9.85,2c-8.56,0-14.43-5.32-14.43-15.33,0-9.85,5.31-15.78,13.26-15.78C87.85,89.45,92.55,94.82,92.55,103ZM72.13,102H87.41c-.06-5.09-2.3-8.56-7.28-8.56C75.43,93.48,72.63,96.67,72.13,102Z"/><path class="cls-3" d="M109.84,120v-3.8l21-31.67H110.51V80.05H137v3.8l-21,31.67h21.6V120Z"/><path class="cls-3" d="M148.72,81.9a2.89,2.89,0,1,1-5.76,0c0-2.19,1.29-3.14,2.91-3.14S148.72,79.71,148.72,81.9Zm-.44,38.1h-4.93V90h4.93Z"/><path class="cls-3" d="M181.74,120h-4l-.73-4h-.22c-2,3.13-5.66,4.53-9.52,4.53-7.21,0-10.91-3.3-10.91-10.91V90h5v19.3c0,4.82,2.13,7.16,6.66,7.16,6.66,0,8.84-3.86,8.84-10.85V90h4.93Z"/><path class="cls-3" d="M212.23,99.58V120h-3.58l-1-4.25h-.23c-2.63,3.3-5,4.81-10.07,4.81-5.43,0-9.46-2.8-9.46-8.9s4.59-9.29,14.38-9.57l5.1-.16v-1.79c0-5-2.3-6.66-6.21-6.66a19.77,19.77,0,0,0-8.45,2.29l-1.51-3.69a22.44,22.44,0,0,1,10.23-2.58C208.76,89.5,212.23,92.58,212.23,99.58Zm-9.29,5.93c-7.5.28-9.9,2.4-9.9,6.21,0,3.36,2.23,4.87,5.48,4.87,5,0,8.84-2.75,8.84-8.56v-2.69Z"/><path class="cls-3" d="M255.92,99.58V120h-3.58l-1-4.25h-.22c-2.63,3.3-5,4.81-10.07,4.81-5.43,0-9.46-2.8-9.46-8.9s4.59-9.29,14.38-9.57l5.09-.16v-1.79c0-5-2.29-6.66-6.21-6.66a19.81,19.81,0,0,0-8.45,2.29l-1.51-3.69a22.45,22.45,0,0,1,10.24-2.58C252.45,89.5,255.92,92.58,255.92,99.58Zm-9.29,5.93c-7.49.28-9.9,2.4-9.9,6.21,0,3.36,2.24,4.87,5.48,4.87,5,0,8.85-2.75,8.85-8.56v-2.69Z"/><path class="cls-3" d="M287.14,120.56c-4.47,0-8.45-.67-11-1.9l1.57-4.14a25.89,25.89,0,0,0,9.63,1.68c5.93,0,9-2.47,9-6.44s-2.18-5.59-9.4-8.22c-6.82-2.47-10.29-5.66-10.29-11.87s5.2-10.18,12.76-10.18a26.69,26.69,0,0,1,11,2.24L298.84,86a24.66,24.66,0,0,0-9.52-2.13c-5,0-7.55,2.35-7.55,5.82,0,4,2.24,5.65,8.73,8.06,7.05,2.63,10.91,5.26,10.91,11.52C301.41,116.42,295.87,120.56,287.14,120.56Zm3.58,3.36a26.58,26.58,0,0,1-4.47,8.45h-2.69v-.68a35.65,35.65,0,0,0,2.29-8.28h4.87Z"/><path class="cls-3" d="M329.22,99.58V120h-3.59l-.95-4.25h-.22c-2.63,3.3-5,4.81-10.07,4.81-5.43,0-9.46-2.8-9.46-8.9s4.59-9.29,14.38-9.57l5.09-.16v-1.79c0-5-2.29-6.66-6.21-6.66a19.85,19.85,0,0,0-8.45,2.29l-1.51-3.69a22.48,22.48,0,0,1,10.24-2.58C325.75,89.5,329.22,92.58,329.22,99.58Zm-9.29,5.93c-7.5.28-9.91,2.4-9.91,6.21,0,3.36,2.24,4.87,5.49,4.87,5,0,8.84-2.75,8.84-8.56v-2.69Z"/><path class="cls-3" d="M364,105c0,10.24-4.92,15.61-12.37,15.61a10.94,10.94,0,0,1-9.28-4.36H342c.11,1.28.34,3.52.34,4.92v12.31h-4.93V90h4l.67,4.08h.23c1.79-2.57,4.47-4.64,9.34-4.64C359,89.45,364,94.6,364,105Zm-21.65-1v1c0,7.38,2,11.52,8.56,11.52,5.42,0,8-4.86,8-11.58s-2.58-11.3-8.12-11.3C344.66,93.59,342.42,97,342.31,104Z"/><path class="cls-3" d="M382.53,115.8l1.35,3.53a11.39,11.39,0,0,1-5.49,1.23c-4.7,0-8.78-2-8.78-9.29V85l4.92-1.84V90h8.68v3.8h-8.68v17.35c0,3.64,2,5.37,4.7,5.37A8.9,8.9,0,0,0,382.53,115.8Z"/><path class="cls-3" d="M412.24,103v3H391.71c.17,6.77,3.58,10.4,9.57,10.4a24,24,0,0,0,8.22-1.45l1.4,3.69a22.47,22.47,0,0,1-9.85,2c-8.56,0-14.43-5.32-14.43-15.33,0-9.85,5.31-15.78,13.26-15.78C407.54,89.45,412.24,94.82,412.24,103ZM391.82,102H407.1c-.06-5.09-2.3-8.56-7.28-8.56C395.12,93.48,392.32,96.67,391.82,102Z"/><path class="cls-3" d="M440.83,99.58V120h-3.58l-.95-4.25h-.22c-2.63,3.3-5,4.81-10.07,4.81-5.43,0-9.46-2.8-9.46-8.9s4.59-9.29,14.38-9.57l5.09-.16v-1.79c0-5-2.29-6.66-6.21-6.66a19.81,19.81,0,0,0-8.45,2.29l-1.51-3.69a22.45,22.45,0,0,1,10.24-2.58C437.36,89.5,440.83,92.58,440.83,99.58Zm-9.29,5.93c-7.49.28-9.9,2.4-9.9,6.21,0,3.36,2.24,4.87,5.48,4.87,5,0,8.85-2.75,8.85-8.56v-2.69Z"/></svg>