<svg id="Lockups" xmlns="http://www.w3.org/2000/svg" viewBox="0 0 240 240"><defs><style>.cls-1{fill:#f5f5f5;fill-rule:evenodd;}</style></defs><g id="Symbol_-_Scarlett" data-name="Symbol - Scarlett"><path class="cls-1" d="M124.74,213.75c0,.88,1,.88,1.19,0a34.71,34.71,0,0,1,6.53-15h-7.13a.59.59,0,0,0-.59.58v14.41Zm51.26-90c.08,9.37-2.61,17.42-19.7,34.53L142.78,171.8c-6.15,6.16-11.68,11.78-15,17.4h13.35l1.58-1.58,19.39-19.43c16.15-16.17,18.41-33.27,15-44.43-.3-.94-1.12-1-1.11,0Zm-17,57.18-16.2,16.23c-9.8,9.82-18,18.28-18,27.53v2.57c0,.7.87.81,1.14.08,3-8.28,13.14-17.12,31.7-14,0,0,80.83,14,81.51,14a.77.77,0,0,0,.67-1.31c-.31-.36-37.62-37.72-37.62-37.72ZM100.5,198.75a.59.59,0,0,1-.59-.59v-8.37a.59.59,0,0,1,.59-.59h14.15a.58.58,0,0,0,.59-.59c0-7.52-5.7-12.63-28.39-8.67l-49,8.42S.53,225.72.23,226.08a.77.77,0,0,0,.67,1.31c.68-.06,81.51-14,81.51-14,18.56-3.13,28.68,5.71,31.7,14,.27.73,1.14.62,1.14-.08V199.34a.59.59,0,0,0-.59-.59Zm-22.58-117C61.77,97.9,59.51,115,63,126.16c.29,1,1.11,1,1.11,0-.09-9.38,2.61-17.43,19.7-34.54l36.84-36.87c9.81-9.81,18-18.27,18-27.52V12.82c0-.88-1-.88-1.18,0C135.05,24.6,130.34,29.24,120.64,39L77.92,81.73Zm60.77-43.67c0-.88-1-.88-1.19,0-2.42,11.77-7.11,16.49-16.81,26.21L82,103c-18.78,18.8-22,37-12.48,48.68.64.78,1.32.31.91-.63-6.32-14.3,8.83-29.46,16-36.68l34.19-34.22c9.81-9.82,18-18.28,18-27.53V38.06Zm-55.64,89.2c-18.78,18.8-10.14,37,.81,42,1,.44,1.34-.34.61-1-8.78-7.62-6.12-20.44,4.93-31.49l31.21-31.25c9.81-9.81,18-18.27,18-27.52V63.55c0-.87-1-.88-1.18,0C135,75.33,130.35,80,120.65,89.66Zm41.66,61.25c0,.88,1,.88,1.18,0,2.43-11.77,7.12-16.49,16.82-26.2L158.08,147c18.78-18.8,22-37,12.48-48.68-.64-.78-1.32-.31-.91.63,6.32,14.3-8.83,29.46-16,36.68l-10.86,10.88c-9.81,9.81-18,18.27-18,27.52v14.52Zm18-51.6c-9.7,9.71-14.4,14.34-16.82,26.11-.18.88-1.18.88-1.18,0V148.59c0-9.25,8.23-17.71,18-27.52l7.88-7.89c11.05-11.06,13.72-23.87,4.93-31.49-.73-.64-.35-1.42.61-1,10.95,5,19.59,23.15.81,42l-14.27,14.25Zm91.4,63.92c.81,0,1.29-.44,1.29-1.09s-.4-1-1.3-1h-.76v2.13Zm-1.94-3.12h2c1.68,0,2.44.66,2.44,2a1.82,1.82,0,0,1-1.21,1.76l1.8,3h-1.33l-1.55-2.68h-1v2.68h-1.17v-6.76Zm6.91,3.37a4.75,4.75,0,0,0-4.8-4.86,4.67,4.67,0,0,0-4.81,4.86,4.81,4.81,0,1,0,9.61,0Zm-10.47,0a5.48,5.48,0,0,1,5.67-5.67,5.57,5.57,0,0,1,5.68,5.67,5.68,5.68,0,1,1-11.35,0Z"/></g></svg>